<mxfile host="app.diagrams.net" modified="2023-04-19T09:15:11.495Z" agent="5.0 (Windows NT 10.0; Win64; x64) AppleWebKit/537.36 (KHTML, like Gecko) Chrome/112.0.0.0 Safari/537.36" etag="VLq2OFgEKRu2Hw89ap_g" version="20.8.23" type="github">
  <diagram name="Page-1" id="F-HUCtof-jV3Qa4wmYms">
    <mxGraphModel dx="1450" dy="581" grid="0" gridSize="10" guides="1" tooltips="1" connect="1" arrows="1" fold="1" page="0" pageScale="1" pageWidth="827" pageHeight="1169" math="0" shadow="0">
      <root>
        <mxCell id="0" />
        <mxCell id="1" parent="0" />
        <mxCell id="_dyMuz0y8sjxrx-GjIjV-11" value="" style="group" vertex="1" connectable="0" parent="1">
          <mxGeometry x="-269" y="57" width="204" height="261" as="geometry" />
        </mxCell>
        <mxCell id="_dyMuz0y8sjxrx-GjIjV-1" value="" style="rounded=0;whiteSpace=wrap;html=1;fontSize=16;strokeWidth=3;" vertex="1" parent="_dyMuz0y8sjxrx-GjIjV-11">
          <mxGeometry width="201" height="251" as="geometry" />
        </mxCell>
        <mxCell id="_dyMuz0y8sjxrx-GjIjV-2" value="" style="shape=image;verticalLabelPosition=bottom;labelBackgroundColor=default;verticalAlign=top;aspect=fixed;imageAspect=0;image=data:image/png,iVBORw0KGgoAAAANSUhEUgAAAMgAAADICAYAAACtWK6eAAAAAXNSR0IArs4c6QAAClVJREFUeF7tndFV20oURTWiEajkmQLkuINAJSSVQDowcgGQSkIj1rwlYlZI3iPjY3tm7vVsfnUsXe0zG1ngZYWOHwhA4EMCATYQgMDHBBCE1QGBvxBAEJYHBBCENQCBwwhwBTmMG69qhACCNFI0p3kYAQQ5jBuvaoRANUFWq9XlNE2fZ84hhMtGeJs7zWmavm82mwdzgxkZqLggsxgxxrsY440RBozxk8CXcRy/AuN3AkUFWa1Wi2manijBLIGXcRyvzE5XYbBigiBHhXYPOySSvONWTJBhGJ5CCIvDOuNVhQkgyQ54EUGGYbgJIdwXLpnDHUcASeY/IB3HcL9Xf/r06Z6b8v1YGUs1L0kRQZbL5Y+u6/hTrrHVv+c4TUtSSpC4ZxnEbBJoVhIEsbkgLU7VpCQIYnEp2p2pOUkQxO5itDpZU5JYFeTF6uowOFeNP340I4lVQfhc0J4mLpfLu/lzVHvGX2MxxucT/NO2CUkQRFlZBrOHCNL3/dV2u71HknShCJJmZDpxiCDjOIb5U9VIkq4WQdKMTCcOFWQ+KSRJV4sgaUamE8cIgiTpahEkzch04lhBkOTv9SKI6eWfHu4UgiDJx5wRJL0GTSdOJQiS/H/NCGJ6+aeHO6UgSPJf3giSXoOmE6cWBEl+rxtBTC//9HA5BEGSX9wRJL0GTSdyCYIkP2tHENPLPz1cTkGQBEHSK9B4IrcgrUvCFcS4AKnxSgjSsiQIklqBxreXEqRVSRDEuACp8UoK0qIkCJJagca3lxakNUkQxLgAqfFqCNKSJAiSWoHGt9cSpBVJEMS4AKnxagrSgiQIklqBxrfXFuTcJUEQ4wKkxrMgyDlLgiCpFWh8uxVBzlUSBDEuQGo8S4KcoyQIklqBxrdbE+TcJEEQ4wKkxrMoyDlJgiCpFWh8u1VBzkUSBDEuQGo8y4KcgyQIklqBxrdbF8S7JAhiXIDUeB4E8SwJgqRWoPHtXgQ5pSTz4xs2m811iWoQpATljMfwJMgpJen7/nq9Xj9nRPu6awTJTTjz/r0JckJJijxkCUEyL+Dcu/coyIkkKfKEKwTJvYIz79+rIKeQZH4QUGa8vMXKDTj3/j0LcqwkCJJ7dZ3B/g8RJITwYOnUp2m6POR5iQhiqUWjsxwiiNFTkcdCEBlZey9AkLydZ7/JmcdfLpdRPI0if8ITZzIZR5C8tSBIXr7Z944geREjSF6+2fc+DMNNCOE++4EMHoB7EIOlWBtptVotpml6sjZXiXkQpATlMzjGcrn80XXd5RmcinQKCCLhajfc6tssBGl3zUtnvlqtLrfb7f0h/2yTDmQsjCDGCrE8zizJ7l6kmbdaCGJ5RRqcbSfJ567rvhgc7+QjIcjJkbaxw91brkXXdbMsXQjBw1VFnhFB2ljPnOXPT1vcqVc+BGHpNEMAQbSq+SyWxst9GkG0ChFE4+U+jSBahQii8XKfRhCtQgTReLlPI4hWIYJovNynEUSrEEE0Xu7TCKJViCAaL/dpBNEqRBCNl/s0gmgVIojGy30aQbQKEUTj5T6NIFqFCKLxcp9GEK1CBNF4uU8jiFYhgmi83KcRRKsQQTRe7tMIolWIIBov92kE0SpEEI2X+zSCaBUiiMbLfRpBtAoRROPlPo0gWoUmBHn35Qfa9I7SFxcXLyWeFptCgiApQr9vrypIg99U+NJ13cM4jl+1mk6XRhCNZTVBhmF4au0bCt9VU407gjgQpOVvSn+rp+/76xpvuRDEgSCtfkv6H9UUef74n8sBQXwIoj4qTjsrJ+m+76/W6/V8X1LsB0E01MXfCzd4Y/5hIzXeZiGIcUG4//hVEFeQXyx4RuGOxe6b0ecnNTX/U+I7b7kHeUfAy2OgG/8T72tjMcbnzWZzXfq3BG+xNOLF70Hm8biKdF2N+4+ZPYI4EOTQorRTs5uOMd5uNpuHGhMiiEa9yhXkbcQGn/n30vf9bY1/EL4xRxBHgrwXRRvbX7r0/zs+IoQg2tqpegXRRiV9CgIIolFEEI2X+zSCaBUiiMbLfRpBtAoRROPlPo0gWoUIovFyn0YQrUIE0Xi5TyOIViGCaLzcpxFEqxBBNF7u0wiiVYggGi/3aQTRKkQQjZf7NIJoFSKIxst9GkG0ChFE4+U+jSBahQii8XKfRhCtQgTReLlPI4hWIYJovNynEUSrEEE0Xu7TCKJViCAaL/dpBNEqRBCNl/s0gmgVIojGy30aQbQKEUTj5T6NIFqFCKLxcp9GEK1CBNF4uU8jiFYhgmi83KcRRKsQQTRe7tMIolVYXZDd9/R+jjEuQgiX2vh50iGE52mavtf6etA8Z/Vzrwii0a0miJOvHZ2/KnR+lmDRp0BpFWppBNF4VRPE0SMQzkoSBHEgyCElaad12nQI4eHx8fH2tHuts7dD2Jd40A9PmHq3Hg540E+d1fTuqLWe53HqE0cQjWjxt1heH56DINrCUtNcQXbEHD/Es/gvE3WR7ZPnCrIPpV+Z4qV7vYLUfCqUVunf0wii0SwuyO5v8VEbs366xiObc5w1gmhUqwgyDMNNCOFeG7VqugqnHGeMIBrVasV7+j/IOI5XGla7aQTRuqkmyNtHTLqu+6KNXDRdjU+us0QQjWz1BbD7yMmi7/t/tNHzpGOMrx8r6fv+2zl9xOSNFoJo66a6INq4pI8lgCAaQQTReLlPI4hWIYJovNynEUSrEEE0Xu7TCKJViCAaL/dpBNEqRBCNl/s0gmgVIojGy30aQbQKEUTj5T6NIFqFCKLxcp9GEK1CBNF4uU8jiFYhgmi83KcRRKsQQTRe7tMIolWIIBov92kE0SpEEI2X+zSCaBUiiMbLfRpBtAoRROPlPo0gWoUIovFyn0YQrUIE0Xi5TyOIViGCaLzcpxFEqxBBNF7u0wiiVYggGi/3aQTRKkQQjZf7NIJoFSKIxst9GkG0ChFE4+U+jSBahQii8XKfRhCtQgTReLlPI4hWIYJovNynEUSrEEE0Xu7TCKJViCAaL/dpBNEqRBCNl/s0gmgVIojGy30aQbQKEUTj5T6NIFqFCKLxcp9GEK1CBNF4uU8jiFYhgmi83KcRRKsQQTRe7tMIolWIIBov92kE0Sp8faIrP00RuFTPdhzHoL5GzWc/wDzQcrmM6mDkIZAigCApQmxvmgCCNF0/J58igCApQmxvmsA5CfKj6zr5Jqzp9jn5FIGXcRyvUqFjtxe5SR+G4SmEsDh2WF4PgTcCIYSHx8fH29xESglyE0K4z30y7L8dAjHG281m85D7jIsIslqtLrfb7T1Xkdx1NrP/Im+vZppFBJkPNEsyTdN8L8IPBI4i0Pf99Xq9fj5qJ3u+uJggO0kW0zQ97TkbMQj8SeCl7/vbUnIUvYK8nel8JYkx3sUYb+gfAvsSiDE+X1xczHIU/RhS0SvIexi7+5JF3/f/7AuJXFsEYoyvMvR9/620GG+kqwnSVtWcrVcCCOK1OeYuQgBBimDmIF4JIIjX5pi7CAEEKYKZg3glgCBem2PuIgQQpAhmDuKVAIJ4bY65ixD4F6SNO0E1zs6HAAAAAElFTkSuQmCC;imageBackground=default;" vertex="1" parent="_dyMuz0y8sjxrx-GjIjV-11">
          <mxGeometry x="6" y="17" width="105" height="105" as="geometry" />
        </mxCell>
        <mxCell id="_dyMuz0y8sjxrx-GjIjV-5" value="" style="shape=image;verticalLabelPosition=bottom;labelBackgroundColor=default;verticalAlign=top;aspect=fixed;imageAspect=0;image=data:image/png,iVBORw0KGgoAAAANSUhEUgAAAMgAAADICAYAAACtWK6eAAAAAXNSR0IArs4c6QAAClVJREFUeF7tndFV20oURTWiEajkmQLkuINAJSSVQDowcgGQSkIj1rwlYlZI3iPjY3tm7vVsfnUsXe0zG1ngZYWOHwhA4EMCATYQgMDHBBCE1QGBvxBAEJYHBBCENQCBwwhwBTmMG69qhACCNFI0p3kYAQQ5jBuvaoRANUFWq9XlNE2fZ84hhMtGeJs7zWmavm82mwdzgxkZqLggsxgxxrsY440RBozxk8CXcRy/AuN3AkUFWa1Wi2manijBLIGXcRyvzE5XYbBigiBHhXYPOySSvONWTJBhGJ5CCIvDOuNVhQkgyQ54EUGGYbgJIdwXLpnDHUcASeY/IB3HcL9Xf/r06Z6b8v1YGUs1L0kRQZbL5Y+u6/hTrrHVv+c4TUtSSpC4ZxnEbBJoVhIEsbkgLU7VpCQIYnEp2p2pOUkQxO5itDpZU5JYFeTF6uowOFeNP340I4lVQfhc0J4mLpfLu/lzVHvGX2MxxucT/NO2CUkQRFlZBrOHCNL3/dV2u71HknShCJJmZDpxiCDjOIb5U9VIkq4WQdKMTCcOFWQ+KSRJV4sgaUamE8cIgiTpahEkzch04lhBkOTv9SKI6eWfHu4UgiDJx5wRJL0GTSdOJQiS/H/NCGJ6+aeHO6UgSPJf3giSXoOmE6cWBEl+rxtBTC//9HA5BEGSX9wRJL0GTSdyCYIkP2tHENPLPz1cTkGQBEHSK9B4IrcgrUvCFcS4AKnxSgjSsiQIklqBxreXEqRVSRDEuACp8UoK0qIkCJJagca3lxakNUkQxLgAqfFqCNKSJAiSWoHGt9cSpBVJEMS4AKnxagrSgiQIklqBxrfXFuTcJUEQ4wKkxrMgyDlLgiCpFWh8uxVBzlUSBDEuQGo8S4KcoyQIklqBxrdbE+TcJEEQ4wKkxrMoyDlJgiCpFWh8u1VBzkUSBDEuQGo8y4KcgyQIklqBxrdbF8S7JAhiXIDUeB4E8SwJgqRWoPHtXgQ5pSTz4xs2m811iWoQpATljMfwJMgpJen7/nq9Xj9nRPu6awTJTTjz/r0JckJJijxkCUEyL+Dcu/coyIkkKfKEKwTJvYIz79+rIKeQZH4QUGa8vMXKDTj3/j0LcqwkCJJ7dZ3B/g8RJITwYOnUp2m6POR5iQhiqUWjsxwiiNFTkcdCEBlZey9AkLydZ7/JmcdfLpdRPI0if8ITZzIZR5C8tSBIXr7Z944geREjSF6+2fc+DMNNCOE++4EMHoB7EIOlWBtptVotpml6sjZXiXkQpATlMzjGcrn80XXd5RmcinQKCCLhajfc6tssBGl3zUtnvlqtLrfb7f0h/2yTDmQsjCDGCrE8zizJ7l6kmbdaCGJ5RRqcbSfJ567rvhgc7+QjIcjJkbaxw91brkXXdbMsXQjBw1VFnhFB2ljPnOXPT1vcqVc+BGHpNEMAQbSq+SyWxst9GkG0ChFE4+U+jSBahQii8XKfRhCtQgTReLlPI4hWIYJovNynEUSrEEE0Xu7TCKJViCAaL/dpBNEqRBCNl/s0gmgVIojGy30aQbQKEUTj5T6NIFqFCKLxcp9GEK1CBNF4uU8jiFYhgmi83KcRRKsQQTRe7tMIolWIIBov92kE0SpEEI2X+zSCaBUiiMbLfRpBtAoRROPlPo0gWoUmBHn35Qfa9I7SFxcXLyWeFptCgiApQr9vrypIg99U+NJ13cM4jl+1mk6XRhCNZTVBhmF4au0bCt9VU407gjgQpOVvSn+rp+/76xpvuRDEgSCtfkv6H9UUef74n8sBQXwIoj4qTjsrJ+m+76/W6/V8X1LsB0E01MXfCzd4Y/5hIzXeZiGIcUG4//hVEFeQXyx4RuGOxe6b0ecnNTX/U+I7b7kHeUfAy2OgG/8T72tjMcbnzWZzXfq3BG+xNOLF70Hm8biKdF2N+4+ZPYI4EOTQorRTs5uOMd5uNpuHGhMiiEa9yhXkbcQGn/n30vf9bY1/EL4xRxBHgrwXRRvbX7r0/zs+IoQg2tqpegXRRiV9CgIIolFEEI2X+zSCaBUiiMbLfRpBtAoRROPlPo0gWoUIovFyn0YQrUIE0Xi5TyOIViGCaLzcpxFEqxBBNF7u0wiiVYggGi/3aQTRKkQQjZf7NIJoFSKIxst9GkG0ChFE4+U+jSBahQii8XKfRhCtQgTReLlPI4hWIYJovNynEUSrEEE0Xu7TCKJViCAaL/dpBNEqRBCNl/s0gmgVIojGy30aQbQKEUTj5T6NIFqFCKLxcp9GEK1CBNF4uU8jiFYhgmi83KcRRKsQQTRe7tMIolVYXZDd9/R+jjEuQgiX2vh50iGE52mavtf6etA8Z/Vzrwii0a0miJOvHZ2/KnR+lmDRp0BpFWppBNF4VRPE0SMQzkoSBHEgyCElaad12nQI4eHx8fH2tHuts7dD2Jd40A9PmHq3Hg540E+d1fTuqLWe53HqE0cQjWjxt1heH56DINrCUtNcQXbEHD/Es/gvE3WR7ZPnCrIPpV+Z4qV7vYLUfCqUVunf0wii0SwuyO5v8VEbs366xiObc5w1gmhUqwgyDMNNCOFeG7VqugqnHGeMIBrVasV7+j/IOI5XGla7aQTRuqkmyNtHTLqu+6KNXDRdjU+us0QQjWz1BbD7yMmi7/t/tNHzpGOMrx8r6fv+2zl9xOSNFoJo66a6INq4pI8lgCAaQQTReLlPI4hWIYJovNynEUSrEEE0Xu7TCKJViCAaL/dpBNEqRBCNl/s0gmgVIojGy30aQbQKEUTj5T6NIFqFCKLxcp9GEK1CBNF4uU8jiFYhgmi83KcRRKsQQTRe7tMIolWIIBov92kE0SpEEI2X+zSCaBUiiMbLfRpBtAoRROPlPo0gWoUIovFyn0YQrUIE0Xi5TyOIViGCaLzcpxFEqxBBNF7u0wiiVYggGi/3aQTRKkQQjZf7NIJoFSKIxst9GkG0ChFE4+U+jSBahQii8XKfRhCtQgTReLlPI4hWIYJovNynEUSrEEE0Xu7TCKJViCAaL/dpBNEqRBCNl/s0gmgVIojGy30aQbQKEUTj5T6NIFqFCKLxcp9GEK1CBNF4uU8jiFYhgmi83KcRRKsQQTRe7tMIolWIIBov92kE0Sp8faIrP00RuFTPdhzHoL5GzWc/wDzQcrmM6mDkIZAigCApQmxvmgCCNF0/J58igCApQmxvmsA5CfKj6zr5Jqzp9jn5FIGXcRyvUqFjtxe5SR+G4SmEsDh2WF4PgTcCIYSHx8fH29xESglyE0K4z30y7L8dAjHG281m85D7jIsIslqtLrfb7T1Xkdx1NrP/Im+vZppFBJkPNEsyTdN8L8IPBI4i0Pf99Xq9fj5qJ3u+uJggO0kW0zQ97TkbMQj8SeCl7/vbUnIUvYK8nel8JYkx3sUYb+gfAvsSiDE+X1xczHIU/RhS0SvIexi7+5JF3/f/7AuJXFsEYoyvMvR9/620GG+kqwnSVtWcrVcCCOK1OeYuQgBBimDmIF4JIIjX5pi7CAEEKYKZg3glgCBem2PuIgQQpAhmDuKVAIJ4bY65ixD4F6SNO0E1zs6HAAAAAElFTkSuQmCC;" vertex="1" parent="_dyMuz0y8sjxrx-GjIjV-11">
          <mxGeometry x="56" y="68" width="105" height="105" as="geometry" />
        </mxCell>
        <mxCell id="_dyMuz0y8sjxrx-GjIjV-6" value="" style="shape=image;verticalLabelPosition=bottom;labelBackgroundColor=default;verticalAlign=top;aspect=fixed;imageAspect=0;image=data:image/png,iVBORw0KGgoAAAANSUhEUgAAAMgAAADICAYAAACtWK6eAAAAAXNSR0IArs4c6QAAClVJREFUeF7tndFV20oURTWiEajkmQLkuINAJSSVQDowcgGQSkIj1rwlYlZI3iPjY3tm7vVsfnUsXe0zG1ngZYWOHwhA4EMCATYQgMDHBBCE1QGBvxBAEJYHBBCENQCBwwhwBTmMG69qhACCNFI0p3kYAQQ5jBuvaoRANUFWq9XlNE2fZ84hhMtGeJs7zWmavm82mwdzgxkZqLggsxgxxrsY440RBozxk8CXcRy/AuN3AkUFWa1Wi2manijBLIGXcRyvzE5XYbBigiBHhXYPOySSvONWTJBhGJ5CCIvDOuNVhQkgyQ54EUGGYbgJIdwXLpnDHUcASeY/IB3HcL9Xf/r06Z6b8v1YGUs1L0kRQZbL5Y+u6/hTrrHVv+c4TUtSSpC4ZxnEbBJoVhIEsbkgLU7VpCQIYnEp2p2pOUkQxO5itDpZU5JYFeTF6uowOFeNP340I4lVQfhc0J4mLpfLu/lzVHvGX2MxxucT/NO2CUkQRFlZBrOHCNL3/dV2u71HknShCJJmZDpxiCDjOIb5U9VIkq4WQdKMTCcOFWQ+KSRJV4sgaUamE8cIgiTpahEkzch04lhBkOTv9SKI6eWfHu4UgiDJx5wRJL0GTSdOJQiS/H/NCGJ6+aeHO6UgSPJf3giSXoOmE6cWBEl+rxtBTC//9HA5BEGSX9wRJL0GTSdyCYIkP2tHENPLPz1cTkGQBEHSK9B4IrcgrUvCFcS4AKnxSgjSsiQIklqBxreXEqRVSRDEuACp8UoK0qIkCJJagca3lxakNUkQxLgAqfFqCNKSJAiSWoHGt9cSpBVJEMS4AKnxagrSgiQIklqBxrfXFuTcJUEQ4wKkxrMgyDlLgiCpFWh8uxVBzlUSBDEuQGo8S4KcoyQIklqBxrdbE+TcJEEQ4wKkxrMoyDlJgiCpFWh8u1VBzkUSBDEuQGo8y4KcgyQIklqBxrdbF8S7JAhiXIDUeB4E8SwJgqRWoPHtXgQ5pSTz4xs2m811iWoQpATljMfwJMgpJen7/nq9Xj9nRPu6awTJTTjz/r0JckJJijxkCUEyL+Dcu/coyIkkKfKEKwTJvYIz79+rIKeQZH4QUGa8vMXKDTj3/j0LcqwkCJJ7dZ3B/g8RJITwYOnUp2m6POR5iQhiqUWjsxwiiNFTkcdCEBlZey9AkLydZ7/JmcdfLpdRPI0if8ITZzIZR5C8tSBIXr7Z944geREjSF6+2fc+DMNNCOE++4EMHoB7EIOlWBtptVotpml6sjZXiXkQpATlMzjGcrn80XXd5RmcinQKCCLhajfc6tssBGl3zUtnvlqtLrfb7f0h/2yTDmQsjCDGCrE8zizJ7l6kmbdaCGJ5RRqcbSfJ567rvhgc7+QjIcjJkbaxw91brkXXdbMsXQjBw1VFnhFB2ljPnOXPT1vcqVc+BGHpNEMAQbSq+SyWxst9GkG0ChFE4+U+jSBahQii8XKfRhCtQgTReLlPI4hWIYJovNynEUSrEEE0Xu7TCKJViCAaL/dpBNEqRBCNl/s0gmgVIojGy30aQbQKEUTj5T6NIFqFCKLxcp9GEK1CBNF4uU8jiFYhgmi83KcRRKsQQTRe7tMIolWIIBov92kE0SpEEI2X+zSCaBUiiMbLfRpBtAoRROPlPo0gWoUmBHn35Qfa9I7SFxcXLyWeFptCgiApQr9vrypIg99U+NJ13cM4jl+1mk6XRhCNZTVBhmF4au0bCt9VU407gjgQpOVvSn+rp+/76xpvuRDEgSCtfkv6H9UUef74n8sBQXwIoj4qTjsrJ+m+76/W6/V8X1LsB0E01MXfCzd4Y/5hIzXeZiGIcUG4//hVEFeQXyx4RuGOxe6b0ecnNTX/U+I7b7kHeUfAy2OgG/8T72tjMcbnzWZzXfq3BG+xNOLF70Hm8biKdF2N+4+ZPYI4EOTQorRTs5uOMd5uNpuHGhMiiEa9yhXkbcQGn/n30vf9bY1/EL4xRxBHgrwXRRvbX7r0/zs+IoQg2tqpegXRRiV9CgIIolFEEI2X+zSCaBUiiMbLfRpBtAoRROPlPo0gWoUIovFyn0YQrUIE0Xi5TyOIViGCaLzcpxFEqxBBNF7u0wiiVYggGi/3aQTRKkQQjZf7NIJoFSKIxst9GkG0ChFE4+U+jSBahQii8XKfRhCtQgTReLlPI4hWIYJovNynEUSrEEE0Xu7TCKJViCAaL/dpBNEqRBCNl/s0gmgVIojGy30aQbQKEUTj5T6NIFqFCKLxcp9GEK1CBNF4uU8jiFYhgmi83KcRRKsQQTRe7tMIolVYXZDd9/R+jjEuQgiX2vh50iGE52mavtf6etA8Z/Vzrwii0a0miJOvHZ2/KnR+lmDRp0BpFWppBNF4VRPE0SMQzkoSBHEgyCElaad12nQI4eHx8fH2tHuts7dD2Jd40A9PmHq3Hg540E+d1fTuqLWe53HqE0cQjWjxt1heH56DINrCUtNcQXbEHD/Es/gvE3WR7ZPnCrIPpV+Z4qV7vYLUfCqUVunf0wii0SwuyO5v8VEbs366xiObc5w1gmhUqwgyDMNNCOFeG7VqugqnHGeMIBrVasV7+j/IOI5XGla7aQTRuqkmyNtHTLqu+6KNXDRdjU+us0QQjWz1BbD7yMmi7/t/tNHzpGOMrx8r6fv+2zl9xOSNFoJo66a6INq4pI8lgCAaQQTReLlPI4hWIYJovNynEUSrEEE0Xu7TCKJViCAaL/dpBNEqRBCNl/s0gmgVIojGy30aQbQKEUTj5T6NIFqFCKLxcp9GEK1CBNF4uU8jiFYhgmi83KcRRKsQQTRe7tMIolWIIBov92kE0SpEEI2X+zSCaBUiiMbLfRpBtAoRROPlPo0gWoUIovFyn0YQrUIE0Xi5TyOIViGCaLzcpxFEqxBBNF7u0wiiVYggGi/3aQTRKkQQjZf7NIJoFSKIxst9GkG0ChFE4+U+jSBahQii8XKfRhCtQgTReLlPI4hWIYJovNynEUSrEEE0Xu7TCKJViCAaL/dpBNEqRBCNl/s0gmgVIojGy30aQbQKEUTj5T6NIFqFCKLxcp9GEK1CBNF4uU8jiFYhgmi83KcRRKsQQTRe7tMIolWIIBov92kE0Sp8faIrP00RuFTPdhzHoL5GzWc/wDzQcrmM6mDkIZAigCApQmxvmgCCNF0/J58igCApQmxvmsA5CfKj6zr5Jqzp9jn5FIGXcRyvUqFjtxe5SR+G4SmEsDh2WF4PgTcCIYSHx8fH29xESglyE0K4z30y7L8dAjHG281m85D7jIsIslqtLrfb7T1Xkdx1NrP/Im+vZppFBJkPNEsyTdN8L8IPBI4i0Pf99Xq9fj5qJ3u+uJggO0kW0zQ97TkbMQj8SeCl7/vbUnIUvYK8nel8JYkx3sUYb+gfAvsSiDE+X1xczHIU/RhS0SvIexi7+5JF3/f/7AuJXFsEYoyvMvR9/620GG+kqwnSVtWcrVcCCOK1OeYuQgBBimDmIF4JIIjX5pi7CAEEKYKZg3glgCBem2PuIgQQpAhmDuKVAIJ4bY65ixD4F6SNO0E1zs6HAAAAAElFTkSuQmCC;" vertex="1" parent="_dyMuz0y8sjxrx-GjIjV-11">
          <mxGeometry x="99" y="128" width="105" height="105" as="geometry" />
        </mxCell>
        <mxCell id="_dyMuz0y8sjxrx-GjIjV-7" value="&lt;font style=&quot;font-size: 24px;&quot;&gt;d&lt;sub&gt;1&lt;/sub&gt;&lt;/font&gt;" style="text;html=1;align=center;verticalAlign=middle;resizable=0;points=[];autosize=1;strokeColor=none;fillColor=none;fontSize=16;" vertex="1" parent="_dyMuz0y8sjxrx-GjIjV-11">
          <mxGeometry x="12" y="105" width="42" height="45" as="geometry" />
        </mxCell>
        <mxCell id="_dyMuz0y8sjxrx-GjIjV-9" value="..." style="text;html=1;align=center;verticalAlign=middle;resizable=0;points=[];autosize=1;strokeColor=none;fillColor=none;fontSize=16;" vertex="1" parent="_dyMuz0y8sjxrx-GjIjV-11">
          <mxGeometry x="45" y="168" width="31" height="31" as="geometry" />
        </mxCell>
        <mxCell id="_dyMuz0y8sjxrx-GjIjV-10" value="&lt;font style=&quot;font-size: 24px;&quot;&gt;d&lt;sub style=&quot;&quot;&gt;m&lt;/sub&gt;&lt;/font&gt;" style="text;html=1;align=center;verticalAlign=middle;resizable=0;points=[];autosize=1;strokeColor=none;fillColor=none;fontSize=16;" vertex="1" parent="_dyMuz0y8sjxrx-GjIjV-11">
          <mxGeometry x="125" y="216" width="48" height="45" as="geometry" />
        </mxCell>
        <mxCell id="_dyMuz0y8sjxrx-GjIjV-16" style="edgeStyle=none;curved=1;rounded=0;orthogonalLoop=1;jettySize=auto;html=1;exitX=1;exitY=0.5;exitDx=0;exitDy=0;fontSize=22;startSize=8;endSize=8;dashed=1;strokeWidth=4;" edge="1" parent="1" source="_dyMuz0y8sjxrx-GjIjV-12" target="_dyMuz0y8sjxrx-GjIjV-15">
          <mxGeometry relative="1" as="geometry" />
        </mxCell>
        <mxCell id="_dyMuz0y8sjxrx-GjIjV-17" style="edgeStyle=orthogonalEdgeStyle;rounded=0;orthogonalLoop=1;jettySize=auto;html=1;exitX=0.5;exitY=0;exitDx=0;exitDy=0;entryX=0;entryY=0.5;entryDx=0;entryDy=0;fontSize=22;startSize=8;endSize=8;dashed=1;strokeWidth=4;" edge="1" parent="1" source="_dyMuz0y8sjxrx-GjIjV-12" target="_dyMuz0y8sjxrx-GjIjV-14">
          <mxGeometry relative="1" as="geometry" />
        </mxCell>
        <mxCell id="_dyMuz0y8sjxrx-GjIjV-12" value="&lt;font style=&quot;font-size: 27px;&quot;&gt;特征抽取&lt;/font&gt;" style="rounded=1;whiteSpace=wrap;html=1;strokeWidth=3;fontSize=16;" vertex="1" parent="1">
          <mxGeometry x="-17" y="203" width="142" height="88.5" as="geometry" />
        </mxCell>
        <mxCell id="_dyMuz0y8sjxrx-GjIjV-13" style="edgeStyle=none;curved=1;rounded=0;orthogonalLoop=1;jettySize=auto;html=1;entryX=0;entryY=0.5;entryDx=0;entryDy=0;fontSize=12;startSize=8;endSize=8;strokeWidth=4;" edge="1" parent="1" target="_dyMuz0y8sjxrx-GjIjV-12">
          <mxGeometry relative="1" as="geometry">
            <mxPoint x="-69" y="247" as="sourcePoint" />
          </mxGeometry>
        </mxCell>
        <mxCell id="_dyMuz0y8sjxrx-GjIjV-18" style="edgeStyle=orthogonalEdgeStyle;rounded=0;orthogonalLoop=1;jettySize=auto;html=1;exitX=1;exitY=0.5;exitDx=0;exitDy=0;fontSize=22;startSize=8;endSize=8;dashed=1;strokeWidth=4;" edge="1" parent="1" source="_dyMuz0y8sjxrx-GjIjV-14" target="_dyMuz0y8sjxrx-GjIjV-15">
          <mxGeometry relative="1" as="geometry" />
        </mxCell>
        <mxCell id="_dyMuz0y8sjxrx-GjIjV-14" value="&lt;font style=&quot;font-size: 27px;&quot;&gt;特征降维&lt;/font&gt;" style="rounded=1;whiteSpace=wrap;html=1;strokeWidth=3;fontSize=16;" vertex="1" parent="1">
          <mxGeometry x="88" y="72" width="142" height="88.5" as="geometry" />
        </mxCell>
        <mxCell id="_dyMuz0y8sjxrx-GjIjV-20" style="edgeStyle=orthogonalEdgeStyle;rounded=0;orthogonalLoop=1;jettySize=auto;html=1;exitX=1;exitY=0.5;exitDx=0;exitDy=0;fontSize=22;startSize=8;endSize=8;strokeWidth=4;" edge="1" parent="1" source="_dyMuz0y8sjxrx-GjIjV-15" target="_dyMuz0y8sjxrx-GjIjV-19">
          <mxGeometry relative="1" as="geometry" />
        </mxCell>
        <mxCell id="_dyMuz0y8sjxrx-GjIjV-15" value="&lt;font style=&quot;font-size: 27px;&quot;&gt;分类器训练&lt;/font&gt;" style="rounded=1;whiteSpace=wrap;html=1;strokeWidth=3;fontSize=16;" vertex="1" parent="1">
          <mxGeometry x="182" y="203" width="142" height="88.5" as="geometry" />
        </mxCell>
        <mxCell id="_dyMuz0y8sjxrx-GjIjV-19" value="&lt;font style=&quot;font-size: 27px;&quot;&gt;性能评估&lt;/font&gt;" style="rounded=1;whiteSpace=wrap;html=1;strokeWidth=3;fontSize=16;" vertex="1" parent="1">
          <mxGeometry x="381" y="203" width="142" height="88.5" as="geometry" />
        </mxCell>
      </root>
    </mxGraphModel>
  </diagram>
</mxfile>
